<?xml version="1.0" encoding="utf-8"?>
<!-- Generator: Adobe Illustrator 21.0.0, SVG Export Plug-In . SVG Version: 6.00 Build 0)  -->
<svg version="1.1" id="Layer_1" xmlns="http://www.w3.org/2000/svg" xmlns:xlink="http://www.w3.org/1999/xlink" x="0px" y="0px"
	 viewBox="0 0 200 340" style="enable-background:new 0 0 200 340;" xml:space="preserve">
<style type="text/css">
	.st0{fill:#EF2B63;}
	.st1{fill:#F7C31E;}
</style>
<g>
	<path class="st0" d="M30.9,59.5h138.2c7.6,0,13.8,6.2,13.8,13.8v193.4c0,8-6.1,13.8-13.8,13.8c-6.5,0-55.5-30.7-62.2-34.6
		s-6.8-4.1-13.8,0c-7,4.1-55.5,34.6-62.2,34.6c-7.8,0-13.8-5.6-13.8-13.8V73.3C17.1,65.6,23.3,59.5,30.9,59.5z"/>
	<path class="st1" d="M155.3,142.6L119,140l-19-39l-19.2,39l-36.1,2.7l24.2,30.2L62,211.5l38-17.7l38,17.7l-7-38.6
		C131,172.8,155.3,142.6,155.3,142.6z"/>
</g>
<rect x="516" y="-123" class="st1" width="60" height="60"/>
<rect x="-374.2" y="407" class="st0" width="250.4" height="56"/>
</svg>
