<?xml version="1.0" encoding="utf-8"?>
<!-- Generator: Adobe Illustrator 21.0.0, SVG Export Plug-In . SVG Version: 6.00 Build 0)  -->
<svg version="1.1" id="Livello_1" xmlns="http://www.w3.org/2000/svg" xmlns:xlink="http://www.w3.org/1999/xlink" x="0px" y="0px"
	 viewBox="0 0 20 34" style="enable-background:new 0 0 20 34;" xml:space="preserve">
<style type="text/css">
	.st0{fill:#23282D;}
	.st1{fill:#43DD93;}
	.st2{opacity:0.6;fill:#43DD93;}
	.st3{opacity:0.6;fill:#FFFFFF;}
	.st4{fill:#FFFFFF;}
	.st5{fill:#181E5B;}
	.st6{fill:#45BFDB;}
	.st7{fill:#F7C31E;}
	.st8{fill:#EF2B63;}
</style>
<path class="st1" d="M10,8.3c-0.2,0.2-3.4,2.5-7.4,3.3c-0.5,9.2,7.4,14,7.4,14c0,0,7.9-4.8,7.4-14C13.4,10.8,10,8.3,10,8.3z"/>
<path class="st4" d="M20,10.1c0-0.3-0.2-0.5-0.5-0.6c-4.9-1-9.1-4.1-9.1-4.1c-0.2-0.2-0.5-0.2-0.7,0C9.5,5.6,5.5,8.6,0.5,9.6
	C0.3,9.6,0,9.9,0,10.1c-0.4,7,2.9,12.1,5.7,15.1c1.1,1.1,2.1,2,2.7,2.5c0.4,0.3,0.7,0.5,0.9,0.6c0.3,0.2,0.4,0.3,0.6,0.3
	c0,0,0,0,0,0c0.2,0,0.3-0.1,0.6-0.3c0.2-0.1,0.4-0.3,0.8-0.5c0.6-0.4,1.5-1.2,2.4-2.1c1.8-1.8,3.3-3.9,4.3-6.1
	C19.5,16.6,20.2,13.4,20,10.1z M14.6,23c-1.9,2.4-3.8,3.8-4.6,4.3c-0.7-0.5-2.7-1.9-4.6-4.3c-2.9-3.7-4.3-7.8-4.2-12.3
	c4.2-1,7.7-3.2,8.8-3.9c1.1,0.8,4.6,3,8.8,3.9C18.9,15.2,17.5,19.3,14.6,23z"/>
</svg>
