<?xml version="1.0" encoding="utf-8"?>
<!-- Generator: Adobe Illustrator 21.0.0, SVG Export Plug-In . SVG Version: 6.00 Build 0)  -->
<svg version="1.1" id="Layer_1" xmlns="http://www.w3.org/2000/svg" xmlns:xlink="http://www.w3.org/1999/xlink" x="0px" y="0px"
	 viewBox="0 0 200 340" style="enable-background:new 0 0 200 340;" xml:space="preserve">
<style type="text/css">
	.st0{fill:#EF2B63;}
	.st1{fill:#F7C31E;}
</style>
<g>
	<path class="st0" d="M16.7,36.7h166.7c9.2,0,16.7,7.5,16.7,16.7v233.3c0,9.7-7.3,16.7-16.7,16.7c-7.8,0-66.9-37-75-41.7
		c-8.1-4.7-8.2-5-16.7,0c-8.4,5-67,41.7-75,41.7c-9.4,0-16.7-6.7-16.7-16.7V53.3C0,44.1,7.5,36.7,16.7,36.7z"/>
	<path class="st1" d="M166.7,137l-43.8-3.2L100,86.7l-23.1,47.1L33.3,137l29.2,36.4L54.2,220l45.8-21.4l45.8,21.4l-8.5-46.6
		C137.4,173.4,166.7,137,166.7,137z"/>
</g>
<rect x="516" y="-123" class="st1" width="60" height="60"/>
<rect x="-374.2" y="407" class="st0" width="250.4" height="56"/>
</svg>
