<?xml version="1.0" encoding="utf-8"?>
<!-- Generator: Adobe Illustrator 21.0.0, SVG Export Plug-In . SVG Version: 6.00 Build 0)  -->
<svg version="1.1" id="Layer_1" xmlns="http://www.w3.org/2000/svg" xmlns:xlink="http://www.w3.org/1999/xlink" x="0px" y="0px"
	 viewBox="0 0 200 340" style="enable-background:new 0 0 200 340;" xml:space="preserve">
<style type="text/css">
	.st0{fill:#EF2B63;}
	.st1{fill:#F7C31E;}
</style>
<rect x="16.4" y="161" width="75.4" height="81"/>
<polygon points="183.6,242 108.2,242 108.2,161 183.6,161 183.6,242 "/>
<g>
	<g>
		<g>
			<path class="st0" d="M183.6,99.7H138v-9.9c0-4.5-3.7-8.2-8.2-8.2c-4.5,0-8.2,3.7-8.2,8.2v9.9H78.4v-9.9c0-4.5-3.7-8.2-8.2-8.2
				S62,85.3,62,89.8v9.9H16.4C7.4,99.7,0,107,0,116.1c0,4.5,0,116.4,0,125.9c0,9.1,7.4,16.4,16.4,16.4c7.3,0,159.8,0,167.2,0
				c9.1,0,16.4-7.4,16.4-16.4c0-5.9,0-119.9,0-125.9C200,107,192.6,99.7,183.6,99.7z M91.8,242H16.4v-81h75.4V242z M183.6,242h-75.4
				v-81h75.4V242L183.6,242z"/>
		</g>
	</g>
	<g>
		<g>
			<path class="st1" d="M62.5,187c-5.4-8.3-15.3-8.3-20.8,0c-5.1,7.4-5,19.5,0,26.8c5.5,8.3,15.3,8.3,20.8,0
				C67.4,206.4,67.5,194.5,62.5,187z M57.3,210.3c-3.1,4.7-7.3,4.6-10.5,0c-3.5-5.3-3.6-14.3,0-19.9c3.2-4.4,7.3-4.7,10.5,0
				C60.9,196,60.8,205,57.3,210.3z"/>
		</g>
	</g>
	<g>
		<g>
			<path class="st1" d="M154.3,187c-5.4-8.3-15.3-8.3-20.8,0c-5.1,7.4-5,19.5,0,26.8c5.5,8.3,15.3,8.3,20.8,0
				C159.2,206.4,159.3,194.5,154.3,187z M149.1,210.3c-3.1,4.7-7.3,4.6-10.5,0c-3.5-5.3-3.6-14.3,0-19.9c3.2-4.4,7.3-4.7,10.5,0
				C152.7,196,152.6,205,149.1,210.3z"/>
		</g>
	</g>
</g>
</svg>
