<?xml version="1.0" encoding="utf-8"?>
<!-- Generator: Adobe Illustrator 21.0.0, SVG Export Plug-In . SVG Version: 6.00 Build 0)  -->
<svg version="1.1" id="Capa_1" xmlns="http://www.w3.org/2000/svg" xmlns:xlink="http://www.w3.org/1999/xlink" x="0px" y="0px"
	 viewBox="0 0 200 340" style="enable-background:new 0 0 200 340;" xml:space="preserve">
<style type="text/css">
	.st0{fill:#43DD93;}
	.st1{fill:#F7C31E;}
</style>
<g id="_x33_8-Award_symbol">
	<g>
		<path class="st0" d="M199.8,173.8c-0.1-0.1-0.3-0.1-0.5-0.1c-0.2,0.1-0.3,0.1-0.5,0.1l-0.1,0c-0.4,0.1-0.7,0.2-1,0.3
			c-5,2-9,5.4-12.1,10.5c-0.8,1.2-1.4,2.5-1.8,3.8c0.8-4.3,1-6,1.1-10.9c0-0.2,0-0.4,0-0.6c0-0.6,0-1.1,0.1-1.6
			c0.1-0.6,0.4-1.1,0.7-1.7c0.1-0.2,0.2-0.3,0.2-0.5c0,0,0.1-0.1,0.1-0.1c1.4-0.2,2.7-0.8,3.9-1.9c1.2-1,2.2-2.3,2.9-3.8
			c2.7-5.3,4-11.2,3.9-17.5c0-0.6-0.1-1.2-0.2-1.8c0-0.3-0.1-0.6-0.1-0.9c0-0.2-0.1-0.3-0.3-0.4c-0.1-0.1-0.3-0.1-0.5,0
			c-0.1,0.1-0.2,0.1-0.2,0.1c-0.1,0.1-0.2,0.1-0.3,0.2c-2.3,1.6-4.3,3.6-5.9,6c-2.7,3.9-4.3,8.2-4.8,13c0-0.5-0.1-1.1-0.1-1.6l0-0.2
			c-0.2-2.1-0.3-4.3-0.5-6.4c0-0.5-0.1-1.1-0.2-1.6c-0.2-1-0.4-1.9-0.1-2.9c0.1-0.2,0.1-0.4,0.2-0.7c0.1-0.5,0.8-1.4,1.8-2.3l0,0
			c0.4-0.3,2.3-2.1,3.4-5.6c1.1-3.6,1-7.3,1-10l0-0.1c-0.1-3.7-0.5-6.6-1.3-9.2c-0.1-0.3-0.2-0.7-0.4-1c-0.1-0.2-0.1-0.4-0.2-0.6
			c-0.1-0.2-0.2-0.3-0.4-0.3l-0.1,0c-0.1,0-0.3,0.1-0.4,0.2l-0.8,1c-3.8,4.7-5.7,10.2-5.6,16.4c0,1.1,0.1,2.2,0.2,3.3
			c-1-3.4-2.1-6.7-3.4-9.8c0-0.1,0-0.2,0-0.2l0-0.4c0-0.6,0-1.3,0-1.9c0-0.1,0.1-0.3,0.2-0.5c0.2-0.3,0.4-0.5,0.7-0.8
			c0.4-0.5,0.8-0.9,1.1-1.5c1-1.7,1.5-3.8,1.5-6.5c0-3.2-0.5-6.5-1.5-10.4c-0.6-2.2-1.5-5-3.1-7.5c-0.1-0.2-0.2-0.3-0.4-0.5
			c-0.1-0.1-0.1-0.2-0.2-0.2c-0.1-0.1-0.2-0.2-0.4-0.2c-0.2,0-0.3,0.1-0.4,0.3c-2,3.7-3.1,7.6-3.1,12c0,3.7,0.5,6.8,1.3,9.3
			c-1.8-3.3-3.9-6.6-6.1-9.7l-0.1-0.1c-0.1-0.1-0.1-0.1-0.1-0.1c-0.1-1-0.2-1.8-0.3-2.5c0,0,0-0.1,0.1-0.2c0.1-0.2,0.3-0.5,0.5-0.7
			c0.3-0.5,0.7-1.1,0.9-1.7c0.7-1.8,0.8-3.9,0.5-6.3c-0.8-5.3-3.2-10.2-7.2-14.7c-0.4-0.5-0.9-0.9-1.4-1.3l-0.1-0.1
			c-0.2-0.2-0.4-0.3-0.6-0.5c-0.1-0.1-0.3-0.2-0.5-0.1c-0.2,0.1-0.3,0.2-0.3,0.4l-0.1,0.4c-0.1,0.3-0.1,0.5-0.1,0.7
			c-0.5,3.2-0.5,6.7,0.1,10.6c0.6,3.9,1.9,7.2,3.8,10.1c-2.8-3.4-5.6-6.2-8.5-8.7c0,0,0-0.1,0-0.1c0.2-1.9-0.3-3.8-1.5-5.6
			c-1.6-2.4-3.8-4.2-6.6-5.4c-1.7-0.7-3.4-1.4-5.1-2c-0.8-0.3-1.6-0.6-2.4-0.9c-0.8-0.3-1.2-0.4-1.4-0.2c-0.2,0.2-0.2,0.4-0.1,0.8
			l0,0.1c1,3.4,2.4,6.1,4.1,8.3c3.2,4,7,6,11.6,6.1c0.2,0,0.3,0.1,0.3,0.1c0.6,0.5,1.1,0.9,1.5,1.2c1.3,1.2,2.6,2.5,3.9,3.8
			c-1.9-1.2-4.2-1.7-6.8-1.6c-1.4,0.1-2.8,0.3-4.2,0.5l-0.1,0c-0.4,0.1-0.8,0.1-1.2,0.2c-0.9,0.1-1.8,0.3-2.5,0.4
			c-0.3,0.1-1.1,0.2-1.2,0.6c-0.1,0.1-0.1,0.3,0,0.4c0.1,0.1,0.1,0.2,0.2,0.3c2.3,2.9,4.8,4.9,7.9,5.9c3.7,1.3,7.1,1.2,10.2-0.3
			c0.5-0.3,1-0.4,1.7-0.4c0.5,0,0.9,0.1,1,0.1c0.2,0,0.4,0.1,0.5,0.2c1.9,2.5,3.7,5.2,5.4,8c-1.4-1.4-3.3-2.3-5.8-2.9
			c-2.2-0.5-4.5-0.6-6.7-0.8l-0.7,0c-0.7,0-1.4-0.1-2.1-0.1l-1.2-0.1c-0.2,0-0.3,0.1-0.4,0.2c-0.1,0.1-0.1,0.3-0.1,0.5
			c0,0.1,0.1,0.4,0.2,0.4c2.3,3.9,5,6.5,8.3,8.2c3.2,1.6,6.1,2,9,1.3c0.3-0.1,0.7-0.1,1.1-0.1c1.2,0,2.1,0.4,2.3,0.7
			c1.6,3.3,3,6.7,4.3,10.2c-1.3-1.8-3.1-3.2-5.4-4.3c-2.3-1.1-4.6-2.1-7-3c-1-0.4-2-0.8-3-1.3c-0.1-0.1-0.3-0.1-0.5,0
			c-0.1,0.1-0.2,0.2-0.2,0.4c0,0.3,3.3,9.5,8.2,13.2c2,1.5,4.4,3,7.5,3.1c0.9,0,1.9,0.1,2.6,1c0.1,0.1,0.3,0.2,0.4,0.3
			c0.2,0.1,0.3,0.2,0.4,0.7c1,4.2,1.7,8.4,2.2,12.8c-0.1-0.4-0.3-0.9-0.5-1.3c-1.1-2.7-2.9-5.1-5.7-7.5c-1.5-1.2-3-2.5-4.5-3.6
			l-0.1-0.1c-0.7-0.5-1.3-1.1-2-1.6c-0.1-0.1-0.3-0.2-0.4-0.4l-0.4-0.4c-0.1-0.1-0.4-0.1-0.5-0.1c-0.2,0.1-0.3,0.3-0.3,0.5
			c0,0.3,0,0.6,0.1,0.8l0,0.1c0,0.5,0.1,1.1,0.1,1.6c0.5,5,2,9.2,4.5,12.7c1.6,2.2,3.8,4.9,7.3,6.2c0.9,0.3,1.5,0.8,2.1,1.6
			c0.6,0.8,0.7,1.5,0.7,2.4c-0.1,3.8-0.3,7.6-0.8,11.4c-0.1-1-0.4-2.1-0.7-3.2c-0.8-2.3-1.9-4.5-3.6-6.8c-1.4-2-2.9-4-4.4-5.9
			l-0.1-0.1c-0.6-0.8-1.2-1.5-1.7-2.3c-0.1-0.2-0.3-0.2-0.3-0.2c-0.1-0.1-0.3-0.1-0.4,0c-0.1,0.1-0.2,0.2-0.3,0.3l0,0.1
			c0,0.1,0,0.1-0.1,0.2c-1,6-0.4,11.3,1.9,16.4c1.1,2.5,2.6,5.3,5.2,7.3c1.2,0.9,2.1,2.2,2.7,3.6c0.1,0.3,0.1,0.4,0.1,0.5
			c-1.1,4.6-2.6,9-4.3,13.2c0.5-2.2,0.4-4.5-0.1-6.9c-0.7-3.4-2-6.7-3.1-9.5l-0.3-0.8c-0.5-1.3-1.1-2.7-1.6-4
			c-0.1-0.2-0.2-0.3-0.5-0.3c-0.2,0-0.3,0.1-0.4,0.3l-0.2,0.3c-0.1,0.1-0.2,0.3-0.2,0.4c-2.3,5.1-3,10.3-2.3,15.6
			c0.5,3.7,1.5,6.4,3,8.7c0.8,1.2,1.5,2.5,1.7,4.1c0,0.4,0,0.6-0.2,0.9c-1.9,3.3-4.1,6.5-6.4,9.4c0,0,0,0,0,0
			c1.7-3.1,1.7-6.4,1.6-9.3c-0.1-2.4-0.4-4.9-0.7-7.3l0-0.1c-0.1-0.9-0.2-1.9-0.3-2.8c-0.1-0.5-0.1-1.1-0.2-1.6l-0.1-0.7
			c0-0.2-0.1-0.3-0.3-0.4c-0.3-0.1-0.7,0.1-1.2,0.6c-3.2,3.8-5.2,8.1-5.9,12.7c-0.7,4.8-0.3,9,1.2,12.6c0,0.1,0,0.3,0,0.4l-0.1,2.1
			c0,0.2-0.1,0.3-0.2,0.4c-3.2,3.1-6.7,5.8-10.5,8c1.8-1.6,3.1-3.7,3.9-6.4c0.9-3,1.4-6,1.9-9l0-0.3c0.2-1.1,0.3-2.1,0.5-3.2
			l0.2-1.2c0-0.2,0-0.4-0.2-0.5c-0.1-0.1-0.3-0.1-0.5-0.1l-0.2,0.1c-0.2,0.1-0.3,0.1-0.5,0.2c-7.1,3.6-11.8,11.9-11.2,19.8
			c0.1,1.2,0,2.4-0.3,3.6c0,0.1-0.1,0.2-0.2,0.2c-3.4,1.4-6.6,2.5-9.9,3.2c-0.2,0-0.3,0.2-0.4,0.3c-0.1,0.2,0,0.3,0.1,0.5
			c0.4,0.4,0.7,0.9,0.9,1.3c0.1,0.2,0.4,0.3,0.5,0.2c2.6-0.6,5.2-1.4,7.7-2.3c0.2-0.1,0.3-0.1,0.5-0.1c0.5,0.1,1.1,0.2,1.8,0.3
			c0.1,0,0.2,0.1,0.2,0.1c1.4,2.8,3.8,4.5,7.3,5.4c0.8,0.2,1.6,0.3,2.4,0.4c0.8,0.1,1.8,0.1,2.8,0.1c1.4,0,2.4-0.1,2.4-0.1
			c3.1-0.3,5.7-1,8-2.1c0.9-0.4,2-1,2.9-2.1c0.2-0.2,0.1-0.5-0.1-0.7c-2.3-2.1-4.7-3.6-7.3-4.6c-3.8-1.5-7.3-1.9-10.7-1.3
			c-0.5,0.1-1,0.2-1.5,0.4c3.2-1.9,6.2-4.1,9.1-6.7c0.1-0.1,0.1-0.1,0.2-0.1c0.5-0.1,1.1-0.2,1.7-0.2c0.1,0,0.1,0,0.1,0
			c1.7,1.9,4,2.9,6.8,2.9c0.1,0,0.3,0,0.4,0c3.1-0.1,6.2-1,9.3-2.5c2.2-1.2,4.5-2.5,6.4-4.5c0.4-0.4,0.8-1,1.1-1.4l0,0
			c0.1-0.2,0.3-0.4,0.4-0.6c0.1-0.1,0.1-0.2,0.1-0.4c0-0.1-0.1-0.3-0.2-0.3c0,0-0.8-0.4-1.6-0.7c-4.9-1.9-9.8-2.1-14.5-0.6
			c-1.5,0.5-3,1.2-4.4,2.3c2.6-3,5-6.3,7.2-9.9c0,0,0.1-0.1,0.1-0.2c0.2-0.1,0.4-0.2,0.6-0.4c0.3-0.2,0.7-0.4,1.1-0.7
			c0.3-0.2,0.4-0.2,0.7,0c0.4,0.3,0.9,0.4,1.3,0.5c2.4,0.6,4.9,0.3,7.6-1c2.5-1.2,4.4-3,6.1-4.8c2.5-2.6,4.1-5,5.1-7.5
			c0.2-0.5,0.4-1.1,0.5-1.6c0.1-0.2,0.1-0.5,0.2-0.7c0.1-0.2-0.1-0.5-0.3-0.6l-0.2,0c-1,0-9.9,0.1-15.2,5.2
			c-1.1,1.1-2.2,2.3-3.1,3.6c2.1-4.4,3.8-9,5.2-13.8l0-0.1c0-0.1,0-0.1,0.1-0.2l1.4-1.9c0.1-0.1,0.1-0.1,0.1-0.1c0,0,0.1,0,0.1,0
			l0.3,0c1,0.1,1.6,0.1,2.1,0c1.9-0.3,3.7-1.3,5.4-3c3.9-4,6.6-9,8.2-15.3c0.2-0.7,0.2-1.3,0.3-2.1c0-0.3,0-0.7,0.1-1
			C200,174.1,199.9,173.9,199.8,173.8z"/>
		<path class="st0" d="M67.5,246.7c-3.2-0.7-6.5-1.8-9.9-3.2c0,0-0.1-0.1-0.2-0.2c-0.3-1.2-0.5-2.3-0.3-3.6
			c0.7-7.9-4-16.2-11.2-19.8c-0.2-0.1-0.3-0.1-0.5-0.2l-0.2-0.1c-0.2-0.1-0.4,0-0.5,0.1c-0.1,0.1-0.2,0.3-0.2,0.5l0.2,1.2
			c0.2,1.1,0.3,2.1,0.5,3.2l0,0.3c0.5,3,0.9,6.1,1.9,9c0.8,2.7,2.1,4.8,3.9,6.4c-3.8-2.2-7.3-4.9-10.5-8c-0.1-0.1-0.1-0.2-0.2-0.4
			l-0.1-2.1c0-0.1,0-0.3,0-0.4c1.6-3.7,2-7.8,1.2-12.6c-0.7-4.7-2.7-8.9-5.9-12.7c-0.4-0.4-0.7-0.7-1-0.7c-0.1,0-0.1,0-0.2,0
			c-0.1,0.1-0.2,0.2-0.3,0.4l-0.1,0.7c-0.1,0.5-0.1,1.1-0.2,1.6c-0.1,0.9-0.2,1.9-0.3,2.8l0,0.1c-0.3,2.4-0.6,4.8-0.7,7.3
			c-0.2,2.9-0.1,6.2,1.6,9.3c0,0,0,0,0,0c-2.3-2.9-4.5-6.1-6.4-9.4c-0.2-0.3-0.2-0.6-0.2-0.9c0.1-1.6,0.9-2.9,1.7-4.1
			c1.5-2.3,2.4-4.9,3-8.7c0.8-5.2,0-10.5-2.3-15.6c-0.1-0.1-0.1-0.3-0.2-0.4l-0.2-0.3c-0.1-0.2-0.3-0.3-0.5-0.3
			c-0.2,0-0.4,0.1-0.4,0.3c-0.5,1.4-1.1,2.7-1.6,4l-0.3,0.8c-1.1,2.8-2.4,6.1-3.1,9.5c-0.5,2.4-0.5,4.7-0.1,6.9
			c-1.8-4.2-3.2-8.6-4.3-13.2c0-0.1,0-0.2,0.1-0.5c0.5-1.4,1.5-2.7,2.7-3.6c2.6-2,4.1-4.8,5.2-7.3c2.3-5,2.9-10.4,1.9-16.4
			c0-0.1,0-0.1-0.1-0.2l0-0.1c0-0.1-0.1-0.2-0.3-0.3c-0.1-0.1-0.3,0-0.4,0c-0.1,0-0.3,0.1-0.4,0.2c-0.6,0.8-1.1,1.5-1.7,2.3
			l-0.1,0.1c-1.5,1.9-3,3.9-4.4,5.9c-1.7,2.3-2.9,4.5-3.6,6.8c-0.4,1.1-0.6,2.2-0.7,3.2c-0.5-3.7-0.8-7.5-0.8-11.4
			c0-0.9,0.1-1.6,0.7-2.4c0.7-0.8,1.3-1.3,2.1-1.6c3.5-1.3,5.7-4,7.3-6.2c2.5-3.6,4-7.7,4.5-12.7c0.1-0.5,0.1-1,0.1-1.6l0-0.1
			c0-0.3,0-0.5,0.1-0.8c0-0.2-0.1-0.4-0.3-0.5c-0.2-0.1-0.4-0.1-0.5,0.1l-0.4,0.4c-0.2,0.1-0.3,0.2-0.4,0.4c-0.7,0.5-1.3,1.1-2,1.6
			l-0.1,0.1c-1.5,1.2-3,2.4-4.5,3.6c-2.8,2.4-4.6,4.8-5.7,7.5c-0.2,0.5-0.3,0.9-0.5,1.3c0.4-4.4,1.2-8.6,2.2-12.8
			c0.1-0.5,0.2-0.7,0.4-0.7c0.2-0.1,0.3-0.2,0.4-0.3c0.7-0.8,1.7-0.9,2.6-1c3.1-0.1,5.5-1.6,7.5-3.1c4.8-3.6,8.2-12.9,8.2-13.2
			c0-0.2-0.1-0.3-0.2-0.4c-0.1-0.1-0.3-0.1-0.5,0c-1,0.4-2,0.8-3.1,1.3c-2.3,0.9-4.7,1.9-6.9,3c-2.3,1.1-4.1,2.5-5.4,4.3
			c1.2-3.5,2.7-6.9,4.3-10.2c0.2-0.4,1-0.7,2.3-0.7c0.4,0,0.8,0,1.1,0.1c2.9,0.7,5.8,0.3,9-1.3c3.3-1.6,6-4.3,8.3-8.2
			c0-0.1,0.1-0.3,0.2-0.4c0.1-0.2,0-0.3-0.1-0.5c-0.1-0.1-0.2-0.2-0.4-0.2c0,0,0,0,0,0l-1.2,0.1c-0.7,0-1.4,0.1-2.1,0.1l-0.7,0
			c-2.2,0.1-4.5,0.2-6.7,0.8c-2.5,0.6-4.4,1.5-5.8,2.9c1.7-2.8,3.5-5.5,5.4-8c0.1-0.1,0.3-0.2,0.5-0.2c0.1,0,0.5-0.1,1-0.1
			c0.6,0,1.2,0.1,1.7,0.4c3,1.5,6.4,1.6,10.1,0.3c3-1,5.6-3,7.9-5.9c0.1-0.1,0.1-0.2,0.2-0.3c0.1-0.1,0.1-0.3,0-0.4
			c-0.2-0.4-0.9-0.5-1.2-0.6c-0.8-0.1-1.7-0.3-2.5-0.4c-0.4-0.1-0.8-0.1-1.2-0.2l-0.1,0c-1.4-0.2-2.8-0.4-4.2-0.5
			c-2.6-0.1-4.9,0.4-6.8,1.6c1.3-1.4,2.6-2.6,3.9-3.8c0.4-0.4,0.9-0.8,1.5-1.2c0,0,0.2-0.1,0.3-0.1c4.6-0.2,8.3-2.2,11.6-6.1
			c1.8-2.2,3.1-4.9,4.1-8.3l0-0.1c0.1-0.4,0.2-0.6-0.1-0.8c-0.2-0.2-0.5-0.1-1.4,0.2c-0.8,0.3-1.6,0.6-2.4,0.9c-1.7,0.6-3.4,1.3-5,2
			c-2.8,1.2-5,3-6.6,5.4c-1.2,1.8-1.7,3.7-1.5,5.6c0,0,0,0.1,0,0.1c-2.9,2.5-5.7,5.3-8.5,8.7c1.9-2.9,3.1-6.2,3.8-10.1
			c0.6-3.9,0.7-7.4,0.1-10.6c0-0.2-0.1-0.4-0.1-0.7l-0.1-0.4c0-0.2-0.2-0.3-0.3-0.4c-0.2,0-0.4,0-0.5,0.1c-0.2,0.2-0.4,0.4-0.6,0.5
			l-0.1,0.1c-0.5,0.4-0.9,0.9-1.4,1.3c-4,4.6-6.4,9.4-7.2,14.7c-0.4,2.4-0.2,4.5,0.5,6.3c0.2,0.6,0.6,1.1,0.9,1.7
			c0.2,0.2,0.3,0.5,0.5,0.7c0.1,0.2,0.1,0.2,0.1,0.2c-0.1,0.7-0.2,1.5-0.3,2.5c0,0,0,0-0.1,0.1l0,0.1c-2.2,3.1-4.2,6.3-6.1,9.7
			c0.7-2.5,1.3-5.7,1.3-9.3c0-4.4-1.1-8.3-3.1-12c-0.1-0.1-0.2-0.2-0.4-0.3c-0.1,0-0.3,0.1-0.4,0.2c-0.1,0.1-0.1,0.2-0.2,0.2
			c-0.1,0.2-0.3,0.3-0.4,0.5c-1.6,2.6-2.5,5.4-3.1,7.5c-1.1,4-1.5,7.3-1.5,10.4c0,2.7,0.5,4.7,1.5,6.5c0.3,0.5,0.7,1,1.1,1.5
			c0.2,0.3,0.4,0.5,0.6,0.8c0.1,0.2,0.2,0.4,0.2,0.5c0,0.6,0,1.3,0,1.9l0,0.4c0,0.1,0,0.2,0,0.2c-1.3,3.2-2.5,6.4-3.4,9.8
			c0.1-1.1,0.2-2.3,0.2-3.3c0.1-6.2-1.8-11.7-5.6-16.4l-0.8-1c-0.1-0.1-0.2-0.2-0.4-0.2l-0.1,0c-0.2,0-0.3,0.1-0.4,0.3
			c-0.1,0.2-0.1,0.4-0.2,0.6c-0.1,0.3-0.3,0.7-0.4,1c-0.8,2.6-1.2,5.4-1.3,9.2l0,0.1c-0.1,2.7-0.1,6.5,1,10c1.1,3.5,3,5.3,3.4,5.6
			l0,0c1,0.9,1.7,1.8,1.8,2.3c0.1,0.2,0.1,0.4,0.2,0.7c0.3,1,0.1,1.9-0.1,2.9c-0.1,0.5-0.2,1-0.2,1.6c-0.1,2.1-0.3,4.3-0.5,6.4
			l0,0.2c0,0.5-0.1,1.1-0.1,1.6c-0.4-4.8-2-9.2-4.8-13c-1.7-2.4-3.7-4.4-5.9-6c-0.1-0.1-0.2-0.1-0.3-0.2c-0.1,0-0.1-0.1-0.2-0.1
			c-0.1-0.1-0.3-0.1-0.5,0c-0.1,0.1-0.3,0.2-0.3,0.4c0,0.3-0.1,0.6-0.1,0.9c-0.1,0.6-0.1,1.2-0.2,1.8c0,6.3,1.3,12.2,3.9,17.5
			c0.7,1.5,1.7,2.8,2.9,3.8c1.2,1,2.5,1.6,3.9,1.9c0,0,0.1,0.1,0.1,0.1c0.1,0.2,0.2,0.3,0.2,0.5c0.3,0.6,0.6,1.1,0.7,1.7
			c0.1,0.5,0.1,1,0.1,1.6c0,0.2,0,0.4,0,0.6c0.1,4.9,0.3,6.6,1.1,10.9c-0.5-1.3-1.1-2.6-1.8-3.8c-3.1-5-7.1-8.5-12.1-10.5
			c-0.3-0.1-0.6-0.2-1-0.3l-0.1,0c-0.2,0-0.3-0.1-0.5-0.1c-0.2-0.1-0.3,0-0.5,0.1c-0.1,0.1-0.2,0.3-0.2,0.4c0,0.3,0.1,0.7,0.1,1
			c0.1,0.7,0.1,1.4,0.3,2.1c1.6,6.3,4.3,11.3,8.2,15.3c1.7,1.7,3.4,2.7,5.4,3c0.5,0.1,1.1,0.1,2.1,0l0.3,0c0,0,0.1,0,0.1,0
			c0.1,0,0.1,0,0.1,0.1l1.4,1.9c0,0,0,0.1,0.1,0.2l0,0.1c1.4,4.8,3.2,9.4,5.2,13.8c-0.9-1.3-2-2.5-3.1-3.6C15,202.9,6,202.8,5,202.8
			l-0.1,0l-0.1,0c-0.2,0.1-0.4,0.3-0.3,0.6c0.1,0.2,0.1,0.5,0.2,0.7c0.1,0.5,0.3,1.1,0.5,1.6c1,2.5,2.6,4.9,5.1,7.5
			c1.7,1.8,3.6,3.6,6.1,4.8c2.7,1.3,5.2,1.6,7.6,1c0.4-0.1,0.9-0.2,1.3-0.5c0.3-0.2,0.4-0.2,0.7,0c0.3,0.3,0.7,0.5,1.1,0.7
			c0.2,0.1,0.4,0.2,0.6,0.3c0,0,0.1,0.1,0.1,0.2c2.2,3.6,4.6,6.9,7.2,9.9c-1.4-1-2.8-1.8-4.4-2.3c-4.7-1.5-9.6-1.3-14.5,0.6
			c-0.7,0.3-1.5,0.7-1.6,0.7c-0.1,0.1-0.2,0.2-0.2,0.3c0,0.1,0,0.3,0.1,0.4c0.2,0.2,0.3,0.4,0.4,0.6l0,0c0.3,0.4,0.7,1,1.1,1.4
			c1.9,2,4.2,3.4,6.4,4.5c3.1,1.6,6.2,2.4,9.3,2.5c0.1,0,0.3,0,0.4,0c2.9,0,5.1-0.9,6.8-2.9c0,0,0.1,0,0.1,0c0.7,0,1.3,0.1,1.8,0.2
			c0.1,0,0.2,0.1,0.2,0.1c2.9,2.5,5.9,4.8,9.1,6.7c-0.5-0.1-1-0.3-1.5-0.4c-3.4-0.7-6.9-0.2-10.7,1.3c-2.6,1-5,2.5-7.3,4.6
			c-0.2,0.2-0.2,0.5-0.1,0.7c0.8,1.1,1.9,1.6,2.9,2.1c2.3,1.1,4.9,1.8,8,2.1c0,0,1,0.1,2.4,0.1c1,0,1.9,0,2.8-0.1
			c0.8-0.1,1.6-0.2,2.4-0.4c3.5-0.9,5.9-2.6,7.3-5.4c0,0,0.1-0.1,0.3-0.1c0.6-0.2,1.2-0.3,1.8-0.3c0.1,0,0.3,0,0.5,0.1
			c2.4,0.9,5,1.7,7.7,2.3c0,0,0.1,0,0.1,0c0.2,0,0.3-0.1,0.4-0.3c0.3-0.5,0.6-0.9,0.9-1.3c0.1-0.1,0.1-0.3,0.1-0.5
			C67.8,246.8,67.6,246.7,67.5,246.7z"/>
	</g>
	<path class="st1" d="M123.8,182l20.1-19.6c0.7-0.7,0.9-1.7,0.6-2.6c-0.3-0.9-1.1-1.6-2-1.7l-27.8-4l-12.4-25.2
		c-0.4-0.9-1.3-1.4-2.2-1.4c-1,0-1.8,0.5-2.2,1.4L85.3,154l-27.8,4c-0.9,0.1-1.7,0.8-2,1.7c-0.3,0.9,0,1.9,0.6,2.6L76.2,182
		l-4.8,27.7c-0.2,0.9,0.2,1.9,1,2.5c0.8,0.6,1.8,0.6,2.6,0.2l24.9-13.1l24.9,13.1c0.4,0.2,0.8,0.3,1.2,0.3c0.5,0,1-0.2,1.5-0.5
		c0.8-0.6,1.2-1.5,1-2.5L123.8,182z"/>
</g>
</svg>
