<?xml version="1.0" encoding="utf-8"?>
<!-- Generator: Adobe Illustrator 21.0.0, SVG Export Plug-In . SVG Version: 6.00 Build 0)  -->
<svg version="1.1" id="Capa_1" xmlns="http://www.w3.org/2000/svg" xmlns:xlink="http://www.w3.org/1999/xlink" x="0px" y="0px"
	 viewBox="0 0 200 340" style="enable-background:new 0 0 200 340;" xml:space="preserve">
<style type="text/css">
	.st0{fill:#F7C31E;}
</style>
<g>
	<g>
		<path class="st0" d="M190,80h-30V70H40v10H10C4,80,0,84,0,90v24c0,23,17,42,40,45v1c0,29,20,53,47,59l-7,21H57c-4,0-8,3-9,7l-8,23
			h120l-8-23c-1-4-5-7-9-7h-23l-7-21c27-6,47-30,47-59v-1c23-3,40-22,40-45V90C200,84,196,80,190,80z M40,139c-11-3-20-13-20-25v-14
			h20V139z M120,170l-20-11l-20,11l5-20l-15-20h21l9-20l9,20h21l-15,20L120,170z M180,114c0,12-9,23-20,25v-39h20V114z"/>
	</g>
</g>
</svg>
